<svg width="200" height="200" viewBox="0 0 200 200" xmlns="http://www.w3.org/2000/svg">
  <!-- Fondo circular rojo -->
  <circle cx="100" cy="100" r="100" fill="#E53E3E"/>
  
  <!-- Patrón geométrico blanco -->
  <g fill="none" stroke="white" stroke-width="4" stroke-linecap="round" stroke-linejoin="round">
    <!-- Forma geométrica central interconectada -->
    <path d="M50 70 L80 70 L80 50 L120 50 L120 80 L150 80 L150 120 L120 120 L120 150 L80 150 L80 120 L50 120 L50 80 Z"/>
    <path d="M70 50 L70 70 L50 70"/>
    <path d="M130 50 L130 80 L150 80"/>
    <path d="M150 130 L120 130 L120 150"/>
    <path d="M80 150 L80 120 L50 120"/>
    
    <!-- Elementos centrales de conexión -->
    <rect x="85" y="85" width="30" height="30" fill="none"/>
    <path d="M100 85 L100 70"/>
    <path d="M115 100 L130 100"/>
    <path d="M100 115 L100 130"/>
    <path d="M85 100 L70 100"/>
    
    <!-- Detalles geométricos adicionales -->
    <circle cx="70" cy="70" r="3" fill="white"/>
    <circle cx="130" cy="70" r="3" fill="white"/>
    <circle cx="130" cy="130" r="3" fill="white"/>
    <circle cx="70" cy="130" r="3" fill="white"/>
  </g>
</svg>